<mxfile host="app.diagrams.net" modified="2024-05-03T12:42:10.696Z" agent="Mozilla/5.0 (Macintosh; Intel Mac OS X 10_15_7) AppleWebKit/537.36 (KHTML, like Gecko) Chrome/124.0.0.0 Safari/537.36" version="24.3.1" etag="-aYRu7DQCEzIheo6vRIU" type="github">
  <diagram name="Page-1" id="c-xDFuUH_CRWXN95Hacc">
    <mxGraphModel>
      <root>
        <mxCell id="0" />
        <mxCell id="1" parent="0" />
      </root>
    </mxGraphModel>
  </diagram>
</mxfile>
